<svg id="Capa_1" data-name="Capa 1" xmlns="http://www.w3.org/2000/svg" viewBox="0 0 226.6 191.56"><defs><style>.cls-1{fill:#fdfdfd;}.cls-2{fill:#f2a717;}.cls-3{fill:#e1e1e1;}.cls-4{fill:#f4b742;}.cls-5{fill:#f4b847;}.cls-6{fill:#f4b740;}.cls-7{fill:#f4b844;}.cls-8{fill:#f4ba4c;}.cls-9{fill:#f4b743;}.cls-10{fill:#706f6e;}.cls-11{fill:#fbf1dc;}.cls-12{fill:#afafaf;}.cls-13{fill:#f5c15e;}.cls-14{fill:#7b7b7b;}</style></defs><title>logo-graphentech</title><path class="cls-1" d="M122.72,200.35q-56.1,0-112.2,0c-.9,0-1.1-.21-1.1-1.11q0-94.68,0-189.36c0-.9.2-1.1,1.1-1.1q112.2,0,224.4,0c.9,0,1.1.2,1.1,1.1q0,94.68,0,189.36c0,.9-.2,1.11-1.1,1.11Q178.82,200.33,122.72,200.35Z" transform="translate(-9.42 -8.81)"/><path class="cls-2" d="M73.53,196.33a33.59,33.59,0,0,1-7.59-4.06C51,181.82,36.14,171.3,21.1,161c-4.1-2.81-7.71-6.09-9.9-10.68a6.29,6.29,0,0,1-.54-2.3c-.47-5.52.78-10.71,2.43-16C18.85,113.84,24.41,95.55,30,77.28c1.06-3.43,1.89-6.93,3.05-10.33A31.49,31.49,0,0,1,49.56,48.37Q77.31,34.54,105.23,21c6-2.91,12-5.85,18-8.73,1.62-.77,3.34-1.34,5-2a3.58,3.58,0,0,1,1.41-.2c2.08,0,4.16,0,6.24,0a8.17,8.17,0,0,1,3.8.82,83.33,83.33,0,0,1,12.48,7.8q20.15,14.07,40.3,28.14a24.15,24.15,0,0,1,7.13,7c2.56,4.17,2.58,8.67,1.49,13.21-2.65,11-5.78,21.91-9,32.78q-6,20.2-12.8,40.14c-3,8.68-9,14.74-17,18.85-8.37,4.31-16.89,8.33-25.34,12.5Q118,180.65,99,190c-.68.33-1.31.75-2,1.13a.66.66,0,0,1-.45.36,3.73,3.73,0,0,0-2.86,2.27c-.05.15-.22.23-.36.31-3,.65-5.93,1.27-8.84,2.13a24.91,24.91,0,0,1-8.87,1.07A4.14,4.14,0,0,1,73.53,196.33Z" transform="translate(-9.42 -8.81)"/><path class="cls-3" d="M73.53,196.33l1.94.73a10.71,10.71,0,0,0,5.06.79c17.56-.08,35.12.07,52.68-.09,7.75-.07,15.5-.24,23.25-.47,5.39-.16,10.78-.38,16.18-.45,1.08,0,2.14-.23,3.22-.29.57,0,1-.27,1-.92s-.42-.92-1-1a2.81,2.81,0,0,0-.71-.08c-3.08,0-6.15,0-9.23-.22-5-.29-10-.45-15-.71l-1.08,0c-15.56-.29-31.11-.25-46.67-.24-2.91,0-5.84-.24-8.66.78a1,1,0,0,1-1.06-.25c.25-2.05,1.87-2.32,3.44-2.66,1.11,1.26,2.56,1,4,1,.39,0,.78-.16,1.18-.16,5.16,0,10.32-.18,15.47,0,8.63.37,17.26.06,25.89.19,2.19,0,4.37-.3,6.57-.25,4.83.13,9.66.09,14.49.29,3.7.15,7.41.24,11.1.48,8.49.57,17,.4,25.5.44a18.77,18.77,0,0,1,4.76,1,1.34,1.34,0,0,1,1,1.6,1.31,1.31,0,0,1-1.49,1.24,11.2,11.2,0,0,0-3.54.47c-4.64,1.08-9.36.6-14.06.74-6.73.21-13.47.41-20.21.55l-7.66.16c-27.38.49-54.76.14-82.15.24C74.88,199.16,74.63,199,73.53,196.33Z" transform="translate(-9.42 -8.81)"/><path class="cls-1" d="M193.75,74.13a6.51,6.51,0,0,1-.21,3.88q-7.48,25.08-15,50.16c-.63,2.1-1.52,4-3.54,5.2a49.59,49.59,0,0,1-6.48,3.34c-3.28,1.48-6.48,3.13-9.72,4.7-5.58,2.69-11.19,5.32-16.69,8.18-2.8,1.47-5.67,2.78-8.53,4.12a12.4,12.4,0,0,1-12.27-.62c-3.26-2-6.15-4.45-9.27-6.62-5.11-3.57-10.28-7.06-15.39-10.63a37,37,0,0,1-4-3.09,7.51,7.51,0,0,1-2.29-7.53c.67-3.42,1.82-6.71,2.82-10,3-10,6.1-20,9-30a18.61,18.61,0,0,1,9.79-12c7-3.54,14.12-7,21.2-10.42,6.36-3.1,12.67-6.32,19.06-9.36,4.77-2.27,9.28-2.08,13.58,1,8.91,6.38,18,12.53,27,18.76A2.46,2.46,0,0,1,193.75,74.13Z" transform="translate(-9.42 -8.81)"/><path class="cls-1" d="M195.67,64.06a7.81,7.81,0,0,1,1,2.37,3.05,3.05,0,0,1,.07.95c0,.68-.38.7-.87.58a6.59,6.59,0,0,1-2.13-1.08q-8.1-5.68-16.23-11.33c-5.51-3.84-10.94-7.8-16.44-11.65a15.18,15.18,0,0,0-10-2.82,17.08,17.08,0,0,0-6.42,1.86q-13.08,6.42-26.18,12.81Q107,61.42,95.44,67.24a18.89,18.89,0,0,0-10.65,14C80.92,93.93,77,106.65,73.14,119.4c-1,3.25-1.94,6.51-2.94,9.76a6.54,6.54,0,0,0,.56,5.76c.65,2.61,2.42,4.35,4.53,5.83q13.59,9.54,27.26,19c1.61,1.12,3.19,2.27,4.81,3.38a14.38,14.38,0,0,0,13.09,2.1,36.19,36.19,0,0,0,5.5-2.37c8-4,16.09-7.69,24-11.77,4.73-2.43,9.46-4.85,14.27-7.11,2.75-1.29,5.52-2.54,8.35-3.67.39-.16.87-.6,1.27,0a3.94,3.94,0,0,1-1.77,2.14,5.32,5.32,0,0,0-1.69,1.44,1,1,0,0,1-.62.53c-10.58,4.84-20.94,10.16-31.4,15.25-2.84,1.39-5.68,2.75-8.5,4.17-5.54,2.79-11.16,5.41-16.69,8.21a20.88,20.88,0,0,1-9,2.37,16.11,16.11,0,0,1-9.49-2.9c-4.27-2.88-8.38-6-12.61-9-6.12-4.29-12.3-8.5-18.44-12.76-2.44-1.68-4.9-3.32-7.2-5.19-3.49-2.85-5-6.43-4-10.93s2.36-8.56,3.63-12.81c3.23-10.84,6.58-21.65,9.75-32.51,1.11-3.8,2.06-7.64,3.35-11.39A27,27,0,0,1,80.69,62.6,105.08,105.08,0,0,1,91,57.41q9.38-4.59,18.75-9.16Q122.85,41.8,136,35.35c2.47-1.2,5.06-2.15,7.76-3.32a6.2,6.2,0,0,0-2.84.13,40.38,40.38,0,0,0-5,1.88c-11.1,5.6-22.29,11-33.43,16.56-6.7,3.32-13.4,6.65-20.13,9.89a27.56,27.56,0,0,0-10.62,8.77,26.41,26.41,0,0,0-3.78,8c-3.18,10.61-6.43,21.19-9.57,31.81-2.28,7.71-4.76,15.36-6.79,23.14-1.12,4.27-.63,8.26,2.55,11.62a28.9,28.9,0,0,0,4.53,3.73c10,7,20,13.83,29.89,20.89a75.11,75.11,0,0,0,7.29,5.06,16.94,16.94,0,0,0,14.36,1,76.35,76.35,0,0,0,8.16-3.78q8.36-4.07,16.7-8.18c10.4-5.11,20.9-10,31.31-15.15,1.39-.69,2.81-1.35,4.23-2,.32-.15.77-.73,1.15,0-1.57,2.31-3.89,3.7-6.25,5-.42.24-.81.5-1.22.74-1.26,1-2.85,1.42-4.28,2.1q-8.51,4-16.92,8.24c-7.79,3.9-15.55,7.86-23.38,11.68s-15.91,7.66-24.07,11.05a20.05,20.05,0,0,1-13.41-3c-3.56-2.18-6.82-4.77-10.22-7.16-6.83-4.82-13.71-9.56-20.56-14.34-4.49-3.13-9.13-6.07-13.38-9.54a14.38,14.38,0,0,1-4.27-5.7c-1-2.45-.68-5-.22-7.45a105.19,105.19,0,0,1,3-10.86c2.87-9.58,5.8-19.13,8.7-28.7,2.48-8.15,4.83-16.33,7.36-24.47A27.06,27.06,0,0,1,66.88,56.23c10.7-5.34,21.46-10.57,32.18-15.85q11.31-5.57,22.64-11.06c3.63-1.76,7.17-3.72,10.92-5.23a23.77,23.77,0,0,1,8.44-1.37c4.8-.13,8.22,2.46,11.78,5l30,21c4,2.82,8,5.65,12.09,8.45a3,3,0,0,1,1,1.15c.47,1.07,1,2.13,1.39,3.23.16.44.5,1,.05,1.45s-1,.15-1.51-.09c-2.58-1.95-4.92-4.19-7.49-6.16-6.68-5.1-13.62-9.81-20.67-14.37-4.36-2.83-8.77-5.57-13.33-8.07-1.46-.81-3-1.44-4.19-2.08,1,.6,2.27,1.4,3.52,2.22,10.55,6.94,20.87,14.23,31.13,21.59,3.31,2.37,6.64,4.74,9.93,7.13A2.49,2.49,0,0,1,195.67,64.06Z" transform="translate(-9.42 -8.81)"/><path class="cls-1" d="M97.52,186.19c-3.35,1.2-6.41,3-9.69,4.41-7.08,2.94-13.69,2.4-20.06-2.1-15.3-10.82-30.69-21.5-46-32.24a18.28,18.28,0,0,1-5.6-5.51,11.17,11.17,0,0,1-1-8.7c1.56-6.23,3.52-12.35,5.33-18.51,5.34-18.18,10.86-36.3,16.33-54.44A26.56,26.56,0,0,1,51.11,52.3q30.48-15,61-30l11.92-5.87c6.4-3.14,12.65-2.75,18.76.8A36.37,36.37,0,0,1,149.36,22c.3.71-.18.92-.7,1.11a2.87,2.87,0,0,1-1.15-.32c-5.72-2.29-11.29-1.67-16.72.93-8.4,4-16.73,8.18-25.1,12.28q-13.45,6.59-26.92,13.2-6.52,3.18-13,6.43A27,27,0,0,0,54,66.62a37.65,37.65,0,0,0-2.87,7.62Q45.5,92.77,40,111.32q-3.61,12.2-7.14,24.41a16.78,16.78,0,0,0-.53,8.05c.72,3.57,3.11,6,5.9,8,4.62,3.38,9.36,6.57,14,9.84,8.49,5.93,17,11.82,25.45,17.81,2.47,1.75,4.87,3.65,7.75,4.75a17.37,17.37,0,0,0,10.59.74C97.43,184.88,97.7,185.11,97.52,186.19Z" transform="translate(-9.42 -8.81)"/><path class="cls-1" d="M195.64,70.33a2.47,2.47,0,0,1-.92,2.36,2.39,2.39,0,0,1-2.32-.54q-9.5-6.72-19-13.49c-1.95-1.4-3.91-2.79-5.78-4.28-5.28-4.21-10.9-4.5-16.83-1.54-7.59,3.78-15.14,7.64-22.75,11.36L111.8,72.14A19.62,19.62,0,0,0,101.14,85c-2.4,8.41-5,16.77-7.51,25.16-1.44,4.87-2.95,9.72-4.26,14.62a8.26,8.26,0,0,0,3.17,9.35c1.29,1,2.61,2,4,2.9,7.34,5.06,14.79,10,21.89,15.37a17.92,17.92,0,0,0,4.45,2.57c4.43,1.7,8.65.95,12.76-1,2.92-1.4,5.8-2.89,8.69-4.34,7-3.53,14.17-6.89,21.24-10.36a56.49,56.49,0,0,0,7.31-3.83c1.29-.88,2.55-.44,2.92.84l-.71.74a2.62,2.62,0,0,1-1.22.93c-14.07,7.08-28.25,14-42.35,21-3.14,1.57-6.24,3.26-9.52,4.56a17,17,0,0,1-9.27,1.2,4.36,4.36,0,0,1-1.76-.71q-9.87-6.81-19.76-13.61c-5.2-3.58-10.36-7.23-15.61-10.75a9.12,9.12,0,0,1-4.28-6.35c-.16-4,1.08-7.73,2.2-11.48,3.29-11,6.59-22,9.82-33q1-3.51,2.09-7a24,24,0,0,1,3.22-7.32,19.88,19.88,0,0,1,7.87-6.67q16.92-8.4,33.89-16.69c5.09-2.5,10.23-4.91,15.31-7.44a15.43,15.43,0,0,1,7.61-1.83,9,9,0,0,1,4.85,1.51c10.92,7.53,22.06,14.75,32.64,22.78,1.37,1,2.73,2.09,4.07,3.17A1.67,1.67,0,0,1,195.64,70.33Z" transform="translate(-9.42 -8.81)"/><path class="cls-4" d="M96.09,185.18a16.87,16.87,0,0,1-14.28-2.56c-5.51-3.69-10.89-7.58-16.33-11.38L38.84,152.65A18.33,18.33,0,0,1,33.22,147c-2-3.46-1.88-7.13-.83-10.8Q37,120.29,41.72,104.4q4.94-16.56,10-33.1c2.26-7.39,7.13-12.56,14-15.93q28.78-14.2,57.61-28.31c2.87-1.41,5.72-2.86,8.64-4.13a19.59,19.59,0,0,1,16.71.06,3.14,3.14,0,0,1,1.26.64c12.33,8.52,24.59,17.14,36.91,25.68,2.3,1.59,4.61,3.17,6.89,4.81a2.33,2.33,0,0,1,1,1c1.46.47,1.71.91,1.39,2.33-.06.27-.1.54-.15.81L170.41,40.37c-6.71-4.71-13.47-9.34-20.12-14.12-6.32-4.56-12.87-4.06-19.48-1-5.84,2.68-11.55,5.63-17.32,8.46C98.61,41,83.79,48.38,68.84,55.53,60,59.74,54.61,66.41,52,75.79c-3.27,11.72-7,23.32-10.46,35-2.42,8.06-4.85,16.12-7.23,24.19a17.75,17.75,0,0,0-.79,7.34c.42,3.24,2.31,5.64,4.75,7.65,4.54,3.75,9.53,6.87,14.35,10.22,9.08,6.33,18.22,12.59,27.15,19.12,4.71,3.45,9.87,5.37,15.8,4.71C96.3,184.14,96.59,184.48,96.09,185.18Z" transform="translate(-9.42 -8.81)"/><path class="cls-5" d="M171.71,145.39a22.27,22.27,0,0,0-5.07,2.23c-16.25,7.86-32.53,15.64-48.71,23.65a59,59,0,0,1-8.5,3.84,17.43,17.43,0,0,1-16.22-2.85C81.8,163.89,70.07,156,58.5,147.84a29.52,29.52,0,0,1-4.79-4c-3.33-3.58-3.61-7.8-2.37-12.22,1.92-6.8,4-13.56,6-20.32,3.4-11.35,6.88-22.68,10.21-34A26.42,26.42,0,0,1,81.8,60.4Q109.37,46.71,137,33.17a12.11,12.11,0,0,1,5.84-1.57,3,3,0,0,1,1.57.36,3.31,3.31,0,0,1-1.52.78c-6.89,2.7-13.41,6.19-20,9.42-13,6.3-25.9,12.66-38.87,19A28.15,28.15,0,0,0,68.51,79.91C65.2,92.07,61.42,104.1,57.8,116.18c-1.72,5.73-3.64,11.4-5,17.23a10.15,10.15,0,0,0,4,11c4.94,3.88,10.24,7.25,15.39,10.83,7,4.91,14.14,9.77,21,14.89a19.22,19.22,0,0,0,8.56,3.8,18.43,18.43,0,0,0,11-2c12.27-6,24.49-12.09,36.78-18.07,6.78-3.29,13.45-6.85,20.41-9.78.14-.06.3-.1.45-.15C172.09,144,172.13,144,171.71,145.39Z" transform="translate(-9.42 -8.81)"/><path class="cls-4" d="M175.76,136.27c-.81-1.1-1.62-1.38-2.63-.69-3.91,2.69-8.37,4.3-12.57,6.42-8.16,4.11-16.4,8.09-24.6,12.13-3.53,1.75-7.19,2.65-11.12,1.8a15.4,15.4,0,0,1-6.13-2.89c-7.82-6-16.07-11.33-24.12-17-.82-.57-1.6-1.19-2.39-1.81A8.33,8.33,0,0,1,89,125c1.38-5.5,3.13-10.89,4.73-16.32,2.41-8.19,4.91-16.36,7.34-24.54A19.18,19.18,0,0,1,111.4,72q16.16-8,32.35-15.92c2.79-1.38,5.54-2.84,8.38-4.12,5.4-2.45,10.49-1.76,15.22,1.8,8.4,6.32,17.05,12.29,25.6,18.4a2.18,2.18,0,0,0,1.77.52,1.14,1.14,0,0,0-1,1.44Q184,67.46,174.29,60.76c-2.76-1.9-5.52-3.81-8.22-5.81a12.3,12.3,0,0,0-13.73-1.22q-14.22,7-28.48,14c-3.44,1.69-6.84,3.44-10.33,5-6.07,2.75-9.68,7.37-11.41,13.77-2.81,10.4-6.16,20.64-9.25,31-.73,2.44-1.5,4.87-2.1,7.36a7.72,7.72,0,0,0,3.38,8.76c4.89,3.47,9.83,6.87,14.75,10.28,3.48,2.42,6.93,4.88,10.29,7.45a15.74,15.74,0,0,0,6.64,3.17,13.37,13.37,0,0,0,8.47-1.43q16.3-7.94,32.6-15.92c2.33-1.14,4.67-2.28,7-3.4a2.39,2.39,0,0,1,1.12-.39,3.31,3.31,0,0,0,.5.49C177,134.8,177.05,135,175.76,136.27Z" transform="translate(-9.42 -8.81)"/><path class="cls-6" d="M195.64,70.33c-9.63-7.74-19.89-14.62-30.11-21.55-2.31-1.56-4.65-3.1-6.91-4.75a10.3,10.3,0,0,0-9.46-1.39,50.6,50.6,0,0,0-7.84,3.54c-14.49,7.08-28.91,14.3-43.46,21.25-6.32,3-10.42,7.6-12.15,14.35-.73.34-.89-.25-1.13-.71a18.2,18.2,0,0,1,6.8-11.59,36.32,36.32,0,0,1,6.92-4Q121.54,53.8,145,42.52c6-2.89,11.68-2.28,17.05,1.61,10.45,7.58,21.08,14.91,31.66,22.3a12,12,0,0,0,1.51,1c1.48.74,1.53.69,1.52-1,.54.94.05,1.73-.35,2.53Z" transform="translate(-9.42 -8.81)"/><path class="cls-7" d="M71.55,133.41a9.39,9.39,0,0,0,4.23,6C87.21,147.23,98.64,155.07,110,163a9.59,9.59,0,0,0,6.92,1.47,25.18,25.18,0,0,0,8.46-2.88L175.05,137a2.61,2.61,0,0,1-1.19,3.34c-.43-.29-.74.08-1.08.21-9.23,3.73-18,8.5-26.88,12.89q-11.51,5.64-23.08,11.16c-5.71,2.74-11,2-16.22-1.63-10.37-7.34-20.83-14.55-31.26-21.82-2.19-1.52-4.25-3.16-4.74-6C70.61,134.39,70.61,133.64,71.55,133.41Z" transform="translate(-9.42 -8.81)"/><path class="cls-8" d="M96.09,185.18c.28-.6-.29-.82-.53-1.18,4-1.81,8-3.6,12-5.44,13-6,25.61-12.53,38.4-18.83,5.72-2.83,11.39-5.79,17.3-8.22.33-.14.67-.24,1-.36a1.16,1.16,0,0,0-.16.45c.11,2,0,2.18-1.91,2.93-.92.37-1.8.85-2.7,1.29q-10,4.89-20,9.8c-4.43,2.18-8.85,4.42-13.29,6.6q-12,5.92-24.1,11.81c-1.51.74-3,1.44-4.54,2.16C97.63,185,96.85,185.11,96.09,185.18Z" transform="translate(-9.42 -8.81)"/><path class="cls-9" d="M195.67,64.06c-3.59-2.55-7.18-5.07-10.75-7.63-11.47-8.22-23-16.35-34.86-24-.29-.19-.66-.3-.86-.75a16.17,16.17,0,0,1,4.33,1.81A281.66,281.66,0,0,1,192.76,59.9a13.82,13.82,0,0,1,3.09,3C195.56,63.23,195.74,63.66,195.67,64.06Z" transform="translate(-9.42 -8.81)"/><path class="cls-10" d="M80.21,198.15c-1.67,0-3.37.19-4.74-1.09a32,32,0,0,0,10.72-1.63,56.33,56.33,0,0,1,7.35-1.6l.85,0a32.39,32.39,0,0,1,8.29-.19c1.85.2,3.73,0,5.59.07a8.37,8.37,0,0,1,1.66.1l.23,0c2,.45,2.34,1.2,1.59,3.16a1.56,1.56,0,0,1-1,.31c-5.63.16-11.26.49-16.89.13-1.32-.09-2.63.12-4,.15C86.66,197.71,83.45,198.11,80.21,198.15Z" transform="translate(-9.42 -8.81)"/><path class="cls-11" d="M194.68,55.14l-44.81-31.2c-.42-.29-.81-.64-1.22-1a1.13,1.13,0,0,0,.71-.95l43.51,30.14C193.91,52.9,195,53.62,194.68,55.14Z" transform="translate(-9.42 -8.81)"/><path class="cls-12" d="M110,194.14l-15.61-.29a18.11,18.11,0,0,1,6.17-1c10.56.08,21.11,0,31.67.05,6.19,0,12.39.09,18.58.25,5.45.15,10.92.37,16.36.74,2.68.19,5.35.1,8,.19a4.71,4.71,0,0,1,1.19.09,1.41,1.41,0,0,1,1,1.67,1.2,1.2,0,0,1-1.33,1.11c-1.83,0-3.65.29-5.5.26-4-.06-8,.17-12,.3-3.15.11-6.32,0-9.46.2-4.31.32-8.62.09-12.93.22-16.67.5-33.34.12-50,.21-2,0-4,0-6,0A1.26,1.26,0,0,1,81,198c4-.3,8.08-.76,12.12-.86,2.26-.05,4.55.08,6.82.15,3.92.12,7.82-.33,11.73-.25a2.73,2.73,0,0,1,1.95-.38q10.38,0,20.75,0a8.47,8.47,0,0,0,1.67-.09c.42-.09.76-.28.81-.76a.89.89,0,0,0-.67-1,6.35,6.35,0,0,0-2.25-.26c-6.43,0-12.87,0-19.31,0C113.07,194.52,111.55,194.27,110,194.14Z" transform="translate(-9.42 -8.81)"/><path class="cls-13" d="M71.55,133.41c-.59.42-.53,1.2-1,1.72-1.43-1.82-1.35-3.85-.73-5.91q4-13.41,8.09-26.79,3.15-10.35,6.35-20.7c.07-.22.18-.44.27-.66.42.17.6.73,1.13.71-2.74,9.28-5.51,18.55-8.22,27.83-1.75,6-3.77,11.92-5.25,18A24.6,24.6,0,0,0,71.55,133.41Z" transform="translate(-9.42 -8.81)"/><path class="cls-14" d="M110,194.14h25.05a11.58,11.58,0,0,1,1.18.18c.92.1,1.17.65,1.14,1.5S136.73,197,136,197c-1.36,0-2.72,0-4.07,0H111.68v-.35C111.68,194.68,111.68,194.68,110,194.14Z" transform="translate(-9.42 -8.81)"/></svg>